<svg version="1.1" xmlns="http://www.w3.org/2000/svg" viewBox="0 0 560 680" width="560" height="680">
  <!-- svg-source:excalidraw -->
  
  <defs>
    <style class="style-fonts">
      @font-face {
        font-family: "Virgil";
        src: url("https://excalidraw.com/Virgil.woff2");
      }
      @font-face {
        font-family: "Cascadia";
        src: url("https://excalidraw.com/Cascadia.woff2");
      }
      @font-face {
        font-family: "Assistant";
        src: url("https://excalidraw.com/Assistant-Regular.woff2");
      }
    </style>
    <clipPath id="eo9AFb2QYapXaIqqogihr">
            <rect transform="translate(0 0) rotate(0 280 340)" width="560" height="680">
          </rect>
        </clipPath>
  </defs>
  <rect x="0" y="0" width="560" height="680" fill="#ffffff"></rect><g clip-path="url(#eo9AFb2QYapXaIqqogihr)"><g stroke-linecap="round" transform="translate(40 180) rotate(0 39.99999999999996 40)"><path d="M80 40 C80 41.9, 79.86 43.81, 79.59 45.69 C79.32 47.57, 78.91 49.45, 78.38 51.27 C77.85 53.09, 77.17 54.89, 76.39 56.62 C75.6 58.34, 74.68 60.03, 73.65 61.63 C72.62 63.22, 71.47 64.76, 70.23 66.19 C68.99 67.63, 67.63 68.99, 66.19 70.23 C64.76 71.47, 63.22 72.62, 61.63 73.65 C60.03 74.68, 58.34 75.6, 56.62 76.39 C54.89 77.17, 53.09 77.85, 51.27 78.38 C49.45 78.91, 47.57 79.32, 45.69 79.59 C43.81 79.86, 41.9 80, 40 80 C38.1 80, 36.19 79.86, 34.31 79.59 C32.43 79.32, 30.55 78.91, 28.73 78.38 C26.91 77.85, 25.11 77.17, 23.38 76.39 C21.66 75.6, 19.97 74.68, 18.37 73.65 C16.78 72.62, 15.24 71.47, 13.81 70.23 C12.37 68.99, 11.01 67.63, 9.77 66.19 C8.53 64.76, 7.38 63.22, 6.35 61.63 C5.32 60.03, 4.4 58.34, 3.61 56.62 C2.83 54.89, 2.15 53.09, 1.62 51.27 C1.09 49.45, 0.68 47.57, 0.41 45.69 C0.14 43.81, 0 41.9, 0 40 C0 38.1, 0.14 36.19, 0.41 34.31 C0.68 32.43, 1.09 30.55, 1.62 28.73 C2.15 26.91, 2.83 25.11, 3.61 23.38 C4.4 21.66, 5.32 19.97, 6.35 18.37 C7.38 16.78, 8.53 15.24, 9.77 13.81 C11.01 12.37, 12.37 11.01, 13.81 9.77 C15.24 8.53, 16.78 7.38, 18.37 6.35 C19.97 5.32, 21.66 4.4, 23.38 3.61 C25.11 2.83, 26.91 2.15, 28.73 1.62 C30.55 1.09, 32.43 0.68, 34.31 0.41 C36.19 0.14, 38.1 0, 40 0 C41.9 0, 43.81 0.14, 45.69 0.41 C47.57 0.68, 49.45 1.09, 51.27 1.62 C53.09 2.15, 54.89 2.83, 56.62 3.61 C58.34 4.4, 60.03 5.32, 61.63 6.35 C63.22 7.38, 64.76 8.53, 66.19 9.77 C67.63 11.01, 68.99 12.37, 70.23 13.81 C71.47 15.24, 72.62 16.78, 73.65 18.37 C74.68 19.97, 75.6 21.66, 76.39 23.38 C77.17 25.11, 77.85 26.91, 78.38 28.73 C78.91 30.55, 79.32 32.43, 79.59 34.31 C79.86 36.19, 79.93 39.05, 80 40 C80.07 40.95, 80.07 39.05, 80 40" stroke="#1e1e1e" stroke-width="4" fill="none"></path></g></g><g clip-path="url(#eo9AFb2QYapXaIqqogihr)"><g transform="translate(70.2049865650381 199.5157287525381) rotate(0 10.0107421875 20.69999999999999)"><text x="10.0107421875" y="0" font-family="Helvetica, Segoe UI Emoji" font-size="36px" fill="#1e1e1e" text-anchor="middle" style="white-space: pre;" direction="ltr" dominant-baseline="text-before-edge">1</text></g></g><g clip-path="url(#eo9AFb2QYapXaIqqogihr)"><g stroke-linecap="round"><g transform="translate(79.99999999999994 261) rotate(0 2.842170943040401e-14 179.5)"><path d="M0 0 C0 93.03, 0 186.06, 0 359 M0 0 C0 127.14, 0 254.28, 0 359" stroke="#1e1e1e" stroke-width="4" fill="none"></path></g></g><mask></mask></g><g clip-path="url(#eo9AFb2QYapXaIqqogihr)"><g stroke-linecap="round"><g transform="translate(80 320) rotate(0 29.5 0)"><path d="M0 0 C16.98 0, 33.95 0, 59 0 M0 0 C21.78 0, 43.55 0, 59 0" stroke="#1e1e1e" stroke-width="4" fill="none"></path></g></g><mask></mask></g><g clip-path="url(#eo9AFb2QYapXaIqqogihr)"><g stroke-linecap="round"><g transform="translate(180 420) rotate(0 29.5 0)"><path d="M0 0 C14.75 0, 29.51 0, 59 0 M0 0 C14.12 0, 28.24 0, 59 0" stroke="#1e1e1e" stroke-width="4" fill="none"></path></g></g><mask></mask></g><g clip-path="url(#eo9AFb2QYapXaIqqogihr)"><g stroke-linecap="round"><g transform="translate(180 520) rotate(0 29.5 0)"><path d="M0 0 C16.33 0, 32.66 0, 59 0 M0 0 C21 0, 42 0, 59 0" stroke="#1e1e1e" stroke-width="4" fill="none"></path></g></g><mask></mask></g><g clip-path="url(#eo9AFb2QYapXaIqqogihr)"><g stroke-linecap="round"><g transform="translate(80 620) rotate(0 29.5 0)"><path d="M0 0 C21.37 0, 42.74 0, 59 0 M0 0 C14.99 0, 29.97 0, 59 0" stroke="#1e1e1e" stroke-width="4" fill="none"></path></g></g><mask></mask></g><g clip-path="url(#eo9AFb2QYapXaIqqogihr)"><g stroke-linecap="round" transform="translate(140 280) rotate(0 39.99999999999996 39.999999999999986)"><path d="M80 40 C80 41.9, 79.86 43.81, 79.59 45.69 C79.32 47.57, 78.91 49.45, 78.38 51.27 C77.85 53.09, 77.17 54.89, 76.39 56.62 C75.6 58.34, 74.68 60.03, 73.65 61.63 C72.62 63.22, 71.47 64.76, 70.23 66.19 C68.99 67.63, 67.63 68.99, 66.19 70.23 C64.76 71.47, 63.22 72.62, 61.63 73.65 C60.03 74.68, 58.34 75.6, 56.62 76.39 C54.89 77.17, 53.09 77.85, 51.27 78.38 C49.45 78.91, 47.57 79.32, 45.69 79.59 C43.81 79.86, 41.9 80, 40 80 C38.1 80, 36.19 79.86, 34.31 79.59 C32.43 79.32, 30.55 78.91, 28.73 78.38 C26.91 77.85, 25.11 77.17, 23.38 76.39 C21.66 75.6, 19.97 74.68, 18.37 73.65 C16.78 72.62, 15.24 71.47, 13.81 70.23 C12.37 68.99, 11.01 67.63, 9.77 66.19 C8.53 64.76, 7.38 63.22, 6.35 61.63 C5.32 60.03, 4.4 58.34, 3.61 56.62 C2.83 54.89, 2.15 53.09, 1.62 51.27 C1.09 49.45, 0.68 47.57, 0.41 45.69 C0.14 43.81, 0 41.9, 0 40 C0 38.1, 0.14 36.19, 0.41 34.31 C0.68 32.43, 1.09 30.55, 1.62 28.73 C2.15 26.91, 2.83 25.11, 3.61 23.38 C4.4 21.66, 5.32 19.97, 6.35 18.37 C7.38 16.78, 8.53 15.24, 9.77 13.81 C11.01 12.37, 12.37 11.01, 13.81 9.77 C15.24 8.53, 16.78 7.38, 18.37 6.35 C19.97 5.32, 21.66 4.4, 23.38 3.61 C25.11 2.83, 26.91 2.15, 28.73 1.62 C30.55 1.09, 32.43 0.68, 34.31 0.41 C36.19 0.14, 38.1 0, 40 0 C41.9 0, 43.81 0.14, 45.69 0.41 C47.57 0.68, 49.45 1.09, 51.27 1.62 C53.09 2.15, 54.89 2.83, 56.62 3.61 C58.34 4.4, 60.03 5.32, 61.63 6.35 C63.22 7.38, 64.76 8.53, 66.19 9.77 C67.63 11.01, 68.99 12.37, 70.23 13.81 C71.47 15.24, 72.62 16.78, 73.65 18.37 C74.68 19.97, 75.6 21.66, 76.39 23.38 C77.17 25.11, 77.85 26.91, 78.38 28.73 C78.91 30.55, 79.32 32.43, 79.59 34.31 C79.86 36.19, 79.93 39.05, 80 40 C80.07 40.95, 80.07 39.05, 80 40" stroke="#1e1e1e" stroke-width="4" fill="none"></path></g></g><g clip-path="url(#eo9AFb2QYapXaIqqogihr)"><g transform="translate(170.2049865650381 299.5157287525381) rotate(0 10.0107421875 20.700000000000003)"><text x="10.0107421875" y="0" font-family="Helvetica, Segoe UI Emoji" font-size="36px" fill="#1e1e1e" text-anchor="middle" style="white-space: pre;" direction="ltr" dominant-baseline="text-before-edge">2</text></g></g><g clip-path="url(#eo9AFb2QYapXaIqqogihr)"><g stroke-linecap="round" transform="translate(240 380) rotate(0 39.99999999999996 39.999999999999986)"><path d="M80 40 C80 41.9, 79.86 43.81, 79.59 45.69 C79.32 47.57, 78.91 49.45, 78.38 51.27 C77.85 53.09, 77.17 54.89, 76.39 56.62 C75.6 58.34, 74.68 60.03, 73.65 61.63 C72.62 63.22, 71.47 64.76, 70.23 66.19 C68.99 67.63, 67.63 68.99, 66.19 70.23 C64.76 71.47, 63.22 72.62, 61.63 73.65 C60.03 74.68, 58.34 75.6, 56.62 76.39 C54.89 77.17, 53.09 77.85, 51.27 78.38 C49.45 78.91, 47.57 79.32, 45.69 79.59 C43.81 79.86, 41.9 80, 40 80 C38.1 80, 36.19 79.86, 34.31 79.59 C32.43 79.32, 30.55 78.91, 28.73 78.38 C26.91 77.85, 25.11 77.17, 23.38 76.39 C21.66 75.6, 19.97 74.68, 18.37 73.65 C16.78 72.62, 15.24 71.47, 13.81 70.23 C12.37 68.99, 11.01 67.63, 9.77 66.19 C8.53 64.76, 7.38 63.22, 6.35 61.63 C5.32 60.03, 4.4 58.34, 3.61 56.62 C2.83 54.89, 2.15 53.09, 1.62 51.27 C1.09 49.45, 0.68 47.57, 0.41 45.69 C0.14 43.81, 0 41.9, 0 40 C0 38.1, 0.14 36.19, 0.41 34.31 C0.68 32.43, 1.09 30.55, 1.62 28.73 C2.15 26.91, 2.83 25.11, 3.61 23.38 C4.4 21.66, 5.32 19.97, 6.35 18.37 C7.38 16.78, 8.53 15.24, 9.77 13.81 C11.01 12.37, 12.37 11.01, 13.81 9.77 C15.24 8.53, 16.78 7.38, 18.37 6.35 C19.97 5.32, 21.66 4.4, 23.38 3.61 C25.11 2.83, 26.91 2.15, 28.73 1.62 C30.55 1.09, 32.43 0.68, 34.31 0.41 C36.19 0.14, 38.1 0, 40 0 C41.9 0, 43.81 0.14, 45.69 0.41 C47.57 0.68, 49.45 1.09, 51.27 1.62 C53.09 2.15, 54.89 2.83, 56.62 3.61 C58.34 4.4, 60.03 5.32, 61.63 6.35 C63.22 7.38, 64.76 8.53, 66.19 9.77 C67.63 11.01, 68.99 12.37, 70.23 13.81 C71.47 15.24, 72.62 16.78, 73.65 18.37 C74.68 19.97, 75.6 21.66, 76.39 23.38 C77.17 25.11, 77.85 26.91, 78.38 28.73 C78.91 30.55, 79.32 32.43, 79.59 34.31 C79.86 36.19, 79.93 39.05, 80 40 C80.07 40.95, 80.07 39.05, 80 40" stroke="#1e1e1e" stroke-width="4" fill="none"></path></g></g><g clip-path="url(#eo9AFb2QYapXaIqqogihr)"><g transform="translate(270.2049865650381 399.5157287525381) rotate(0 10.0107421875 20.700000000000003)"><text x="10.0107421875" y="0" font-family="Helvetica, Segoe UI Emoji" font-size="36px" fill="#1e1e1e" text-anchor="middle" style="white-space: pre;" direction="ltr" dominant-baseline="text-before-edge">3</text></g></g><g clip-path="url(#eo9AFb2QYapXaIqqogihr)"><g stroke-linecap="round" transform="translate(240 480) rotate(0 39.99999999999996 39.999999999999986)"><path d="M80 40 C80 41.9, 79.86 43.81, 79.59 45.69 C79.32 47.57, 78.91 49.45, 78.38 51.27 C77.85 53.09, 77.17 54.89, 76.39 56.62 C75.6 58.34, 74.68 60.03, 73.65 61.63 C72.62 63.22, 71.47 64.76, 70.23 66.19 C68.99 67.63, 67.63 68.99, 66.19 70.23 C64.76 71.47, 63.22 72.62, 61.63 73.65 C60.03 74.68, 58.34 75.6, 56.62 76.39 C54.89 77.17, 53.09 77.85, 51.27 78.38 C49.45 78.91, 47.57 79.32, 45.69 79.59 C43.81 79.86, 41.9 80, 40 80 C38.1 80, 36.19 79.86, 34.31 79.59 C32.43 79.32, 30.55 78.91, 28.73 78.38 C26.91 77.85, 25.11 77.17, 23.38 76.39 C21.66 75.6, 19.97 74.68, 18.37 73.65 C16.78 72.62, 15.24 71.47, 13.81 70.23 C12.37 68.99, 11.01 67.63, 9.77 66.19 C8.53 64.76, 7.38 63.22, 6.35 61.63 C5.32 60.03, 4.4 58.34, 3.61 56.62 C2.83 54.89, 2.15 53.09, 1.62 51.27 C1.09 49.45, 0.68 47.57, 0.41 45.69 C0.14 43.81, 0 41.9, 0 40 C0 38.1, 0.14 36.19, 0.41 34.31 C0.68 32.43, 1.09 30.55, 1.62 28.73 C2.15 26.91, 2.83 25.11, 3.61 23.38 C4.4 21.66, 5.32 19.97, 6.35 18.37 C7.38 16.78, 8.53 15.24, 9.77 13.81 C11.01 12.37, 12.37 11.01, 13.81 9.77 C15.24 8.53, 16.78 7.38, 18.37 6.35 C19.97 5.32, 21.66 4.4, 23.38 3.61 C25.11 2.83, 26.91 2.15, 28.73 1.62 C30.55 1.09, 32.43 0.68, 34.31 0.41 C36.19 0.14, 38.1 0, 40 0 C41.9 0, 43.81 0.14, 45.69 0.41 C47.57 0.68, 49.45 1.09, 51.27 1.62 C53.09 2.15, 54.89 2.83, 56.62 3.61 C58.34 4.4, 60.03 5.32, 61.63 6.35 C63.22 7.38, 64.76 8.53, 66.19 9.77 C67.63 11.01, 68.99 12.37, 70.23 13.81 C71.47 15.24, 72.62 16.78, 73.65 18.37 C74.68 19.97, 75.6 21.66, 76.39 23.38 C77.17 25.11, 77.85 26.91, 78.38 28.73 C78.91 30.55, 79.32 32.43, 79.59 34.31 C79.86 36.19, 79.93 39.05, 80 40 C80.07 40.95, 80.07 39.05, 80 40" stroke="#1e1e1e" stroke-width="4" fill="none"></path></g></g><g clip-path="url(#eo9AFb2QYapXaIqqogihr)"><g transform="translate(270.2049865650381 499.5157287525381) rotate(0 10.0107421875 20.7)"><text x="10.0107421875" y="0" font-family="Helvetica, Segoe UI Emoji" font-size="36px" fill="#1e1e1e" text-anchor="middle" style="white-space: pre;" direction="ltr" dominant-baseline="text-before-edge">4</text></g></g><g clip-path="url(#eo9AFb2QYapXaIqqogihr)"><g stroke-linecap="round" transform="translate(140 580) rotate(0 39.99999999999996 39.999999999999986)"><path d="M80 40 C80 41.9, 79.86 43.81, 79.59 45.69 C79.32 47.57, 78.91 49.45, 78.38 51.27 C77.85 53.09, 77.17 54.89, 76.39 56.62 C75.6 58.34, 74.68 60.03, 73.65 61.63 C72.62 63.22, 71.47 64.76, 70.23 66.19 C68.99 67.63, 67.63 68.99, 66.19 70.23 C64.76 71.47, 63.22 72.62, 61.63 73.65 C60.03 74.68, 58.34 75.6, 56.62 76.39 C54.89 77.17, 53.09 77.85, 51.27 78.38 C49.45 78.91, 47.57 79.32, 45.69 79.59 C43.81 79.86, 41.9 80, 40 80 C38.1 80, 36.19 79.86, 34.31 79.59 C32.43 79.32, 30.55 78.91, 28.73 78.38 C26.91 77.85, 25.11 77.17, 23.38 76.39 C21.66 75.6, 19.97 74.68, 18.37 73.65 C16.78 72.62, 15.24 71.47, 13.81 70.23 C12.37 68.99, 11.01 67.63, 9.77 66.19 C8.53 64.76, 7.38 63.22, 6.35 61.63 C5.32 60.03, 4.4 58.34, 3.61 56.62 C2.83 54.89, 2.15 53.09, 1.62 51.27 C1.09 49.45, 0.68 47.57, 0.41 45.69 C0.14 43.81, 0 41.9, 0 40 C0 38.1, 0.14 36.19, 0.41 34.31 C0.68 32.43, 1.09 30.55, 1.62 28.73 C2.15 26.91, 2.83 25.11, 3.61 23.38 C4.4 21.66, 5.32 19.97, 6.35 18.37 C7.38 16.78, 8.53 15.24, 9.77 13.81 C11.01 12.37, 12.37 11.01, 13.81 9.77 C15.24 8.53, 16.78 7.38, 18.37 6.35 C19.97 5.32, 21.66 4.4, 23.38 3.61 C25.11 2.83, 26.91 2.15, 28.73 1.62 C30.55 1.09, 32.43 0.68, 34.31 0.41 C36.19 0.14, 38.1 0, 40 0 C41.9 0, 43.81 0.14, 45.69 0.41 C47.57 0.68, 49.45 1.09, 51.27 1.62 C53.09 2.15, 54.89 2.83, 56.62 3.61 C58.34 4.4, 60.03 5.32, 61.63 6.35 C63.22 7.38, 64.76 8.53, 66.19 9.77 C67.63 11.01, 68.99 12.37, 70.23 13.81 C71.47 15.24, 72.62 16.78, 73.65 18.37 C74.68 19.97, 75.6 21.66, 76.39 23.38 C77.17 25.11, 77.85 26.91, 78.38 28.73 C78.91 30.55, 79.32 32.43, 79.59 34.31 C79.86 36.19, 79.93 39.05, 80 40 C80.07 40.95, 80.07 39.05, 80 40" stroke="#1e1e1e" stroke-width="4" fill="none"></path></g></g><g clip-path="url(#eo9AFb2QYapXaIqqogihr)"><g transform="translate(170.2049865650381 599.515728752538) rotate(0 10.0107421875 20.699999999999996)"><text x="10.0107421875" y="0" font-family="Helvetica, Segoe UI Emoji" font-size="36px" fill="#1e1e1e" text-anchor="middle" style="white-space: pre;" direction="ltr" dominant-baseline="text-before-edge">5</text></g></g><g clip-path="url(#eo9AFb2QYapXaIqqogihr)"><g stroke-linecap="round"><g transform="translate(180 360) rotate(0 0 80)"><path d="M0 0 C0 38.36, 0 76.71, 0 160 M0 0 C0 49.49, 0 98.98, 0 160" stroke="#1e1e1e" stroke-width="4" fill="none"></path></g></g><mask></mask></g><g clip-path="url(#eo9AFb2QYapXaIqqogihr)"><g stroke-linecap="round"><g transform="translate(380 420) rotate(0 -20 0)"><path d="M0 0 C-12.02 0, -24.04 0, -40 0 M0 0 C-12.86 0, -25.72 0, -40 0" stroke="#1e1e1e" stroke-width="4" fill="none"></path></g><g transform="translate(380 420) rotate(0 -20 0)"><path d="M-21.21 -6.84 C-26.85 -4.78, -32.5 -2.73, -40 0 M-21.21 -6.84 C-27.25 -4.64, -33.29 -2.44, -40 0" stroke="#1e1e1e" stroke-width="4" fill="none"></path></g><g transform="translate(380 420) rotate(0 -20 0)"><path d="M-21.21 6.84 C-26.85 4.78, -32.5 2.73, -40 0 M-21.21 6.84 C-27.25 4.64, -33.29 2.44, -40 0" stroke="#1e1e1e" stroke-width="4" fill="none"></path></g></g><mask></mask></g><g clip-path="url(#eo9AFb2QYapXaIqqogihr)"><g transform="translate(400 400) rotate(0 65.625 16.799999999999997)"><text x="0" y="0" font-family="Cascadia, Segoe UI Emoji" font-size="28px" fill="#2f9e44" text-anchor="start" style="white-space: pre;" direction="ltr" dominant-baseline="text-before-edge">on_click</text></g></g><g clip-path="url(#eo9AFb2QYapXaIqqogihr)"><g stroke-linecap="round"><g transform="translate(280 360) rotate(0 -20 -20)"><path d="M0 0 C0 -11.06, 0 -22.12, 0 -40 M0 0 C0 -10.15, 0 -20.3, 0 -40 M0 -40 C-10.85 -40, -21.7 -40, -40 -40 M0 -40 C-12.64 -40, -25.28 -40, -40 -40" stroke="#1e1e1e" stroke-width="4" fill="none"></path></g><g transform="translate(280 360) rotate(0 -20 -20)"><path d="M-21.21 -46.84 C-26.4 -44.95, -31.6 -43.06, -40 -40 M-21.21 -46.84 C-25.97 -45.1, -30.74 -43.37, -40 -40" stroke="#1e1e1e" stroke-width="4" fill="none"></path></g><g transform="translate(280 360) rotate(0 -20 -20)"><path d="M-21.21 -33.16 C-26.4 -35.05, -31.6 -36.94, -40 -40 M-21.21 -33.16 C-25.97 -34.9, -30.74 -36.63, -40 -40" stroke="#1e1e1e" stroke-width="4" fill="none"></path></g></g><mask></mask></g><g clip-path="url(#eo9AFb2QYapXaIqqogihr)"><g stroke-linecap="round"><g transform="translate(180 260) rotate(0 -20 -20)"><path d="M0 0 C0 -14.4, 0 -28.81, 0 -40 M0 0 C0 -8.38, 0 -16.76, 0 -40 M0 -40 C-13.01 -40, -26.02 -40, -40 -40 M0 -40 C-12.51 -40, -25.01 -40, -40 -40" stroke="#1e1e1e" stroke-width="4" fill="none"></path></g><g transform="translate(180 260) rotate(0 -20 -20)"><path d="M-21.21 -46.84 C-27.97 -44.38, -34.74 -41.91, -40 -40 M-21.21 -46.84 C-25.14 -45.41, -29.08 -43.97, -40 -40" stroke="#1e1e1e" stroke-width="4" fill="none"></path></g><g transform="translate(180 260) rotate(0 -20 -20)"><path d="M-21.21 -33.16 C-27.97 -35.62, -34.74 -38.09, -40 -40 M-21.21 -33.16 C-25.14 -34.59, -29.08 -36.03, -40 -40" stroke="#1e1e1e" stroke-width="4" fill="none"></path></g></g><mask></mask></g><g clip-path="url(#eo9AFb2QYapXaIqqogihr)"><g stroke-linecap="round" transform="translate(40 40) rotate(0 110 30)"><path d="M15 0 C89.61 0, 164.22 0, 205 0 M15 0 C81.17 0, 147.33 0, 205 0 M205 0 C215 0, 220 5, 220 15 M205 0 C215 0, 220 5, 220 15 M220 15 C220 25.96, 220 36.93, 220 45 M220 15 C220 25.78, 220 36.56, 220 45 M220 45 C220 55, 215 60, 205 60 M220 45 C220 55, 215 60, 205 60 M205 60 C139.06 60, 73.11 60, 15 60 M205 60 C135.86 60, 66.71 60, 15 60 M15 60 C5 60, 0 55, 0 45 M15 60 C5 60, 0 55, 0 45 M0 45 C0 36.22, 0 27.44, 0 15 M0 45 C0 37.83, 0 30.67, 0 15 M0 15 C0 5, 5 0, 15 0 M0 15 C0 5, 5 0, 15 0" stroke="#1e1e1e" stroke-width="4" fill="none"></path></g></g><g clip-path="url(#eo9AFb2QYapXaIqqogihr)"><g transform="translate(67.5244140625 53.89999999999998) rotate(0 82.4755859375 16.099999999999994)"><text x="82.4755859375" y="0" font-family="Helvetica, Segoe UI Emoji" font-size="28px" fill="#1e1e1e" text-anchor="middle" style="white-space: pre;" direction="ltr" dominant-baseline="text-before-edge">EventSystem</text></g></g><g clip-path="url(#eo9AFb2QYapXaIqqogihr)"><g stroke-linecap="round"><g transform="translate(80 164) rotate(0 0 -24)"><path d="M0.02 -0.1 C0.05 -8.21, 0.36 -40.13, 0.4 -48.1 M-0.63 -0.63 C-0.65 -8.42, 0.07 -39.68, 0.18 -47.45" stroke="#1e1e1e" stroke-width="4" fill="none"></path></g><g transform="translate(80 164) rotate(0 0 -24)"><path d="M7.96 -24.74 C5.02 -31.71, 2.4 -39.67, 0.18 -47.45 M7.96 -24.74 C5.25 -32.13, 3.53 -39.42, 0.18 -47.45" stroke="#1e1e1e" stroke-width="4" fill="none"></path></g><g transform="translate(80 164) rotate(0 0 -24)"><path d="M-8.46 -25.05 C-5.83 -31.91, -2.89 -39.77, 0.18 -47.45 M-8.46 -25.05 C-5.9 -32.38, -2.35 -39.58, 0.18 -47.45" stroke="#1e1e1e" stroke-width="4" fill="none"></path></g></g><mask></mask></g></svg>