<svg version="1.1" xmlns="http://www.w3.org/2000/svg" viewBox="0 0 600 580" width="600" height="580">
  <!-- svg-source:excalidraw -->
  
  <defs>
    <style class="style-fonts">
      @font-face {
        font-family: "Virgil";
        src: url("https://excalidraw.com/Virgil.woff2");
      }
      @font-face {
        font-family: "Cascadia";
        src: url("https://excalidraw.com/Cascadia.woff2");
      }
      @font-face {
        font-family: "Assistant";
        src: url("https://excalidraw.com/Assistant-Regular.woff2");
      }
    </style>
    <clipPath id="l9bjWQcYsrrkHYozkJ8E3">
            <rect transform="translate(0 0) rotate(0 300 290)" width="600" height="580">
          </rect>
        </clipPath>
  </defs>
  <rect x="0" y="0" width="600" height="580" fill="#ffffff"></rect><g clip-path="url(#l9bjWQcYsrrkHYozkJ8E3)"><g stroke-linecap="round"><g transform="translate(300 40) rotate(0 0 260)"><path d="M0 0 C0 86.67, 0 433.33, 0 520 M0 0 C0 86.67, 0 433.33, 0 520" stroke="#ced4da" stroke-width="4" fill="none"></path></g><g transform="translate(300 40) rotate(0 0 260)"><path d="M-8.55 496.51 C-6.34 502.59, -4.12 508.67, 0 520 M-8.55 496.51 C-6.48 502.2, -4.4 507.9, 0 520" stroke="#ced4da" stroke-width="4" fill="none"></path></g><g transform="translate(300 40) rotate(0 0 260)"><path d="M8.55 496.51 C6.34 502.59, 4.12 508.67, 0 520 M8.55 496.51 C6.48 502.2, 4.4 507.9, 0 520" stroke="#ced4da" stroke-width="4" fill="none"></path></g></g><mask></mask></g><g clip-path="url(#l9bjWQcYsrrkHYozkJ8E3)"><g stroke-linecap="round" transform="translate(40 40) rotate(0 110 21.099999999999994)"><path d="M10.55 0 C64.4 0, 118.26 0, 209.45 0 M10.55 0 C82.24 0, 153.93 0, 209.45 0 M209.45 0 C216.48 0, 220 3.52, 220 10.55 M209.45 0 C216.48 0, 220 3.52, 220 10.55 M220 10.55 C220 17.94, 220 25.33, 220 31.65 M220 10.55 C220 16.9, 220 23.26, 220 31.65 M220 31.65 C220 38.68, 216.48 42.2, 209.45 42.2 M220 31.65 C220 38.68, 216.48 42.2, 209.45 42.2 M209.45 42.2 C135.29 42.2, 61.13 42.2, 10.55 42.2 M209.45 42.2 C131.04 42.2, 52.63 42.2, 10.55 42.2 M10.55 42.2 C3.52 42.2, 0 38.68, 0 31.65 M10.55 42.2 C3.52 42.2, 0 38.68, 0 31.65 M0 31.65 C0 27.06, 0 22.47, 0 10.55 M0 31.65 C0 25.99, 0 20.32, 0 10.55 M0 10.55 C0 3.52, 3.52 0, 10.55 0 M0 10.55 C0 3.52, 3.52 0, 10.55 0" stroke="#1e1e1e" stroke-width="4" fill="none"></path></g></g><g clip-path="url(#l9bjWQcYsrrkHYozkJ8E3)"><g transform="translate(51.15234375 45) rotate(0 98.84765625 16.099999999999994)"><text x="98.84765625" y="0" font-family="Helvetica, Segoe UI Emoji" font-size="28px" fill="#1e1e1e" text-anchor="middle" style="white-space: pre;" direction="ltr" dominant-baseline="text-before-edge">on_press_down</text></g></g><g clip-path="url(#l9bjWQcYsrrkHYozkJ8E3)"><g mask="url(#mask-7gTfalPwLeh-C_s_IMD9R)" stroke-linecap="round"><g transform="translate(300 320) rotate(0 0 -140)"><path d="M0 0 C0 -46.67, 0 -233.33, 0 -280 M0 0 C0 -46.67, 0 -233.33, 0 -280" stroke="#1e1e1e" stroke-width="4" fill="none"></path></g><g transform="translate(300 320) rotate(0 0 -140)"><path d="M-15 0 C-11.96 0, -8.92 0, 0 0 M-15 0 C-9.76 0, -4.53 0, 0 0" stroke="#1e1e1e" stroke-width="4" fill="none"></path></g><g transform="translate(300 320) rotate(0 0 -140)"><path d="M15 0 C11.96 0, 8.92 0, 0 0 M15 0 C9.76 0, 4.53 0, 0 0" stroke="#1e1e1e" stroke-width="4" fill="none"></path></g><g transform="translate(300 320) rotate(0 0 -140)"><path d="M15 -280 C11.96 -280, 8.92 -280, 0 -280 M15 -280 C9.76 -280, 4.53 -280, 0 -280" stroke="#1e1e1e" stroke-width="4" fill="none"></path></g><g transform="translate(300 320) rotate(0 0 -140)"><path d="M-15 -280 C-11.96 -280, -8.92 -280, 0 -280 M-15 -280 C-9.76 -280, -4.53 -280, 0 -280" stroke="#1e1e1e" stroke-width="4" fill="none"></path></g></g><mask id="mask-7gTfalPwLeh-C_s_IMD9R"><rect x="0" y="0" fill="#fff" width="400" height="700"></rect><rect x="269.9853515625" y="168.5" fill="#000" width="60.029296875" height="23" opacity="1"></rect></mask></g><g clip-path="url(#l9bjWQcYsrrkHYozkJ8E3)"><g transform="translate(269.9853515625 168.5) rotate(0 30.0146484375 11.5)"><text x="30.0146484375" y="0" font-family="Helvetica, Segoe UI Emoji" font-size="20px" fill="#1e1e1e" text-anchor="middle" style="white-space: pre;" direction="ltr" dominant-baseline="text-before-edge">400ms</text></g></g><g clip-path="url(#l9bjWQcYsrrkHYozkJ8E3)"><g stroke-linecap="round" transform="translate(40 220) rotate(0 110 21.099999999999994)"><path d="M10.55 0 C62.81 0, 115.07 0, 209.45 0 M10.55 0 C68.05 0, 125.56 0, 209.45 0 M209.45 0 C216.48 0, 220 3.52, 220 10.55 M209.45 0 C216.48 0, 220 3.52, 220 10.55 M220 10.55 C220 16.32, 220 22.09, 220 31.65 M220 10.55 C220 18.34, 220 26.14, 220 31.65 M220 31.65 C220 38.68, 216.48 42.2, 209.45 42.2 M220 31.65 C220 38.68, 216.48 42.2, 209.45 42.2 M209.45 42.2 C159.74 42.2, 110.02 42.2, 10.55 42.2 M209.45 42.2 C165.14 42.2, 120.84 42.2, 10.55 42.2 M10.55 42.2 C3.52 42.2, 0 38.68, 0 31.65 M10.55 42.2 C3.52 42.2, 0 38.68, 0 31.65 M0 31.65 C0 25.7, 0 19.75, 0 10.55 M0 31.65 C0 24.58, 0 17.51, 0 10.55 M0 10.55 C0 3.52, 3.52 0, 10.55 0 M0 10.55 C0 3.52, 3.52 0, 10.55 0" stroke="#1e1e1e" stroke-width="4" fill="none"></path></g></g><g clip-path="url(#l9bjWQcYsrrkHYozkJ8E3)"><g transform="translate(69.048828125 225) rotate(0 80.951171875 16.099999999999994)"><text x="80.951171875" y="0" font-family="Helvetica, Segoe UI Emoji" font-size="28px" fill="#1e1e1e" text-anchor="middle" style="white-space: pre;" direction="ltr" dominant-baseline="text-before-edge">on_press_up</text></g></g><g clip-path="url(#l9bjWQcYsrrkHYozkJ8E3)"><g stroke-linecap="round" transform="translate(340 40) rotate(0 110 21.099999999999994)"><path d="M10.55 0 C72.11 0, 133.67 0, 209.45 0 M10.55 0 C69.65 0, 128.75 0, 209.45 0 M209.45 0 C216.48 0, 220 3.52, 220 10.55 M209.45 0 C216.48 0, 220 3.52, 220 10.55 M220 10.55 C220 17.33, 220 24.11, 220 31.65 M220 10.55 C220 17.97, 220 25.4, 220 31.65 M220 31.65 C220 38.68, 216.48 42.2, 209.45 42.2 M220 31.65 C220 38.68, 216.48 42.2, 209.45 42.2 M209.45 42.2 C168.79 42.2, 128.14 42.2, 10.55 42.2 M209.45 42.2 C168.44 42.2, 127.42 42.2, 10.55 42.2 M10.55 42.2 C3.52 42.2, 0 38.68, 0 31.65 M10.55 42.2 C3.52 42.2, 0 38.68, 0 31.65 M0 31.65 C0 27.33, 0 23.01, 0 10.55 M0 31.65 C0 27.09, 0 22.52, 0 10.55 M0 10.55 C0 3.52, 3.52 0, 10.55 0 M0 10.55 C0 3.52, 3.52 0, 10.55 0" stroke="#1e1e1e" stroke-width="4" fill="none"></path></g></g><g clip-path="url(#l9bjWQcYsrrkHYozkJ8E3)"><g transform="translate(351.15234375 45) rotate(0 98.84765625 16.099999999999994)"><text x="98.84765625" y="0" font-family="Helvetica, Segoe UI Emoji" font-size="28px" fill="#1e1e1e" text-anchor="middle" style="white-space: pre;" direction="ltr" dominant-baseline="text-before-edge">on_press_down</text></g></g><g clip-path="url(#l9bjWQcYsrrkHYozkJ8E3)"><g stroke-linecap="round" transform="translate(340 500) rotate(0 110 21.099999999999998)"><path d="M10.55 0 C62.95 0, 115.36 0, 209.45 0 M10.55 0 C59.42 0, 108.3 0, 209.45 0 M209.45 0 C216.48 0, 220 3.52, 220 10.55 M209.45 0 C216.48 0, 220 3.52, 220 10.55 M220 10.55 C220 16.52, 220 22.49, 220 31.65 M220 10.55 C220 18.91, 220 27.28, 220 31.65 M220 31.65 C220 38.68, 216.48 42.2, 209.45 42.2 M220 31.65 C220 38.68, 216.48 42.2, 209.45 42.2 M209.45 42.2 C152.58 42.2, 95.71 42.2, 10.55 42.2 M209.45 42.2 C132.02 42.2, 54.59 42.2, 10.55 42.2 M10.55 42.2 C3.52 42.2, 0 38.68, 0 31.65 M10.55 42.2 C3.52 42.2, 0 38.68, 0 31.65 M0 31.65 C0 23.83, 0 16.01, 0 10.55 M0 31.65 C0 27.26, 0 22.87, 0 10.55 M0 10.55 C0 3.52, 3.52 0, 10.55 0 M0 10.55 C0 3.52, 3.52 0, 10.55 0" stroke="#1e1e1e" stroke-width="4" fill="none"></path></g></g><g clip-path="url(#l9bjWQcYsrrkHYozkJ8E3)"><g transform="translate(369.048828125 505) rotate(0 80.951171875 16.099999999999998)"><text x="80.951171875" y="0" font-family="Helvetica, Segoe UI Emoji" font-size="28px" fill="#1e1e1e" text-anchor="middle" style="white-space: pre;" direction="ltr" dominant-baseline="text-before-edge">on_press_up</text></g></g><g clip-path="url(#l9bjWQcYsrrkHYozkJ8E3)"><g stroke-linecap="round" transform="translate(340 320) rotate(0 110 21.099999999999994)"><path d="M10.55 0 C57.81 0, 105.06 0, 209.45 0 M10.55 0 C61.91 0, 113.27 0, 209.45 0 M209.45 0 C216.48 0, 220 3.52, 220 10.55 M209.45 0 C216.48 0, 220 3.52, 220 10.55 M220 10.55 C220 16.11, 220 21.67, 220 31.65 M220 10.55 C220 15.57, 220 20.58, 220 31.65 M220 31.65 C220 38.68, 216.48 42.2, 209.45 42.2 M220 31.65 C220 38.68, 216.48 42.2, 209.45 42.2 M209.45 42.2 C131.5 42.2, 53.55 42.2, 10.55 42.2 M209.45 42.2 C139.78 42.2, 70.11 42.2, 10.55 42.2 M10.55 42.2 C3.52 42.2, 0 38.68, 0 31.65 M10.55 42.2 C3.52 42.2, 0 38.68, 0 31.65 M0 31.65 C0 25.25, 0 18.85, 0 10.55 M0 31.65 C0 23.25, 0 14.86, 0 10.55 M0 10.55 C0 3.52, 3.52 0, 10.55 0 M0 10.55 C0 3.52, 3.52 0, 10.55 0" stroke="#1e1e1e" stroke-width="4" fill="none"></path></g></g><g clip-path="url(#l9bjWQcYsrrkHYozkJ8E3)"><g transform="translate(350.38671875 325) rotate(0 99.61328125 16.099999999999994)"><text x="99.61328125" y="0" font-family="Helvetica, Segoe UI Emoji" font-size="28px" fill="#1e1e1e" text-anchor="middle" style="white-space: pre;" direction="ltr" dominant-baseline="text-before-edge">on_press_move</text></g></g><g clip-path="url(#l9bjWQcYsrrkHYozkJ8E3)"><g stroke-linecap="round" transform="translate(340 380) rotate(0 110 21.099999999999994)"><path d="M10.55 0 C80.6 0, 150.65 0, 209.45 0 M10.55 0 C66.9 0, 123.25 0, 209.45 0 M209.45 0 C216.48 0, 220 3.52, 220 10.55 M209.45 0 C216.48 0, 220 3.52, 220 10.55 M220 10.55 C220 16.42, 220 22.3, 220 31.65 M220 10.55 C220 17.73, 220 24.9, 220 31.65 M220 31.65 C220 38.68, 216.48 42.2, 209.45 42.2 M220 31.65 C220 38.68, 216.48 42.2, 209.45 42.2 M209.45 42.2 C163.62 42.2, 117.8 42.2, 10.55 42.2 M209.45 42.2 C145.97 42.2, 82.49 42.2, 10.55 42.2 M10.55 42.2 C3.52 42.2, 0 38.68, 0 31.65 M10.55 42.2 C3.52 42.2, 0 38.68, 0 31.65 M0 31.65 C0 27.26, 0 22.86, 0 10.55 M0 31.65 C0 26.72, 0 21.8, 0 10.55 M0 10.55 C0 3.52, 3.52 0, 10.55 0 M0 10.55 C0 3.52, 3.52 0, 10.55 0" stroke="#1e1e1e" stroke-width="4" fill="none"></path></g></g><g clip-path="url(#l9bjWQcYsrrkHYozkJ8E3)"><g transform="translate(350.38671875 385) rotate(0 99.61328125 16.099999999999994)"><text x="99.61328125" y="0" font-family="Helvetica, Segoe UI Emoji" font-size="28px" fill="#1e1e1e" text-anchor="middle" style="white-space: pre;" direction="ltr" dominant-baseline="text-before-edge">on_press_move</text></g></g><g clip-path="url(#l9bjWQcYsrrkHYozkJ8E3)"><g stroke-linecap="round" transform="translate(340 440) rotate(0 110 21.099999999999994)"><path d="M10.55 0 C57.9 0, 105.26 0, 209.45 0 M10.55 0 C66.01 0, 121.47 0, 209.45 0 M209.45 0 C216.48 0, 220 3.52, 220 10.55 M209.45 0 C216.48 0, 220 3.52, 220 10.55 M220 10.55 C220 18.64, 220 26.74, 220 31.65 M220 10.55 C220 18.89, 220 27.23, 220 31.65 M220 31.65 C220 38.68, 216.48 42.2, 209.45 42.2 M220 31.65 C220 38.68, 216.48 42.2, 209.45 42.2 M209.45 42.2 C148.57 42.2, 87.68 42.2, 10.55 42.2 M209.45 42.2 C154.89 42.2, 100.34 42.2, 10.55 42.2 M10.55 42.2 C3.52 42.2, 0 38.68, 0 31.65 M10.55 42.2 C3.52 42.2, 0 38.68, 0 31.65 M0 31.65 C0 25.44, 0 19.23, 0 10.55 M0 31.65 C0 24.65, 0 17.64, 0 10.55 M0 10.55 C0 3.52, 3.52 0, 10.55 0 M0 10.55 C0 3.52, 3.52 0, 10.55 0" stroke="#1e1e1e" stroke-width="4" fill="none"></path></g></g><g clip-path="url(#l9bjWQcYsrrkHYozkJ8E3)"><g transform="translate(350.38671875 445) rotate(0 99.61328125 16.099999999999994)"><text x="99.61328125" y="0" font-family="Helvetica, Segoe UI Emoji" font-size="28px" fill="#1e1e1e" text-anchor="middle" style="white-space: pre;" direction="ltr" dominant-baseline="text-before-edge">on_press_move</text></g></g></svg>