<svg version="1.1" xmlns="http://www.w3.org/2000/svg" viewBox="0 0 739.9999999999998 560" width="739.9999999999998" height="560">
  <!-- svg-source:excalidraw -->
  
  <defs>
    <style class="style-fonts">
      @font-face {
        font-family: "Virgil";
        src: url("https://excalidraw.com/Virgil.woff2");
      }
      @font-face {
        font-family: "Cascadia";
        src: url("https://excalidraw.com/Cascadia.woff2");
      }
      @font-face {
        font-family: "Assistant";
        src: url("https://excalidraw.com/Assistant-Regular.woff2");
      }
    </style>
    <clipPath id="sRnubfmopP1CStT848fMR">
            <rect transform="translate(0 0) rotate(0 369.9999999999999 280)" width="739.9999999999999" height="560">
          </rect>
        </clipPath>
  </defs>
  <rect x="0" y="0" width="739.9999999999998" height="560" fill="#ffffff"></rect><g clip-path="url(#sRnubfmopP1CStT848fMR)"><g stroke-linecap="round" transform="translate(161.31640814311254 111.08980109767572) rotate(0 30 30)"><path d="M60 30 C60 31.74, 59.85 33.5, 59.54 35.21 C59.24 36.92, 58.78 38.63, 58.19 40.26 C57.6 41.89, 56.85 43.5, 55.98 45 C55.11 46.5, 54.1 47.95, 52.98 49.28 C51.87 50.61, 50.61 51.87, 49.28 52.98 C47.95 54.1, 46.5 55.11, 45 55.98 C43.5 56.85, 41.89 57.6, 40.26 58.19 C38.63 58.78, 36.92 59.24, 35.21 59.54 C33.5 59.85, 31.74 60, 30 60 C28.26 60, 26.5 59.85, 24.79 59.54 C23.08 59.24, 21.37 58.78, 19.74 58.19 C18.11 57.6, 16.5 56.85, 15 55.98 C13.5 55.11, 12.05 54.1, 10.72 52.98 C9.39 51.87, 8.13 50.61, 7.02 49.28 C5.9 47.95, 4.89 46.5, 4.02 45 C3.15 43.5, 2.4 41.89, 1.81 40.26 C1.22 38.63, 0.76 36.92, 0.46 35.21 C0.15 33.5, 0 31.74, 0 30 C0 28.26, 0.15 26.5, 0.46 24.79 C0.76 23.08, 1.22 21.37, 1.81 19.74 C2.4 18.11, 3.15 16.5, 4.02 15 C4.89 13.5, 5.9 12.05, 7.02 10.72 C8.13 9.39, 9.39 8.13, 10.72 7.02 C12.05 5.9, 13.5 4.89, 15 4.02 C16.5 3.15, 18.11 2.4, 19.74 1.81 C21.37 1.22, 23.08 0.76, 24.79 0.46 C26.5 0.15, 28.26 0, 30 0 C31.74 0, 33.5 0.15, 35.21 0.46 C36.92 0.76, 38.63 1.22, 40.26 1.81 C41.89 2.4, 43.5 3.15, 45 4.02 C46.5 4.89, 47.95 5.9, 49.28 7.02 C50.61 8.13, 51.87 9.39, 52.98 10.72 C54.1 12.05, 55.11 13.5, 55.98 15 C56.85 16.5, 57.6 18.11, 58.19 19.74 C58.78 21.37, 59.24 23.08, 59.54 24.79 C59.85 26.5, 59.92 29.13, 60 30 C60.08 30.87, 60.08 29.13, 60 30" stroke="#e03131" stroke-width="4" fill="none"></path></g></g><g clip-path="url(#sRnubfmopP1CStT848fMR)"><g stroke-linecap="round"><g transform="translate(191.31640814311254 111.08980109767572) rotate(0 0 29.619595328923538)"><path d="M0 0 C0 9.87, 0 49.37, 0 59.24 M0 0 C0 9.87, 0 49.37, 0 59.24" stroke="#e03131" stroke-width="4" fill="none"></path></g></g><mask></mask></g><g clip-path="url(#sRnubfmopP1CStT848fMR)"><g stroke-linecap="round"><g transform="translate(161.31640814311254 141.08980109767572) rotate(0 30.486079187905034 0)"><path d="M0 0 C10.16 0, 50.81 0, 60.97 0 M0 0 C10.16 0, 50.81 0, 60.97 0" stroke="#e03131" stroke-width="4" fill="none"></path></g></g><mask></mask></g><g clip-path="url(#sRnubfmopP1CStT848fMR)"><g stroke-linecap="round"><g transform="translate(59.06305929234168 40) rotate(0 69.62940534417714 60.079197108685776)"><path d="M0 0 C7.51 3.33, 18.68 2.99, 45.07 19.99 C71.46 37, 147.37 85.33, 158.32 102.02 C169.28 118.71, 134.52 124.97, 110.81 120.16 C87.1 115.34, 37.68 83.03, 16.04 73.14 C-5.61 63.24, -13.21 62.85, -19.06 60.79 M0 0 C7.51 3.33, 18.68 2.99, 45.07 19.99 C71.46 37, 147.37 85.33, 158.32 102.02 C169.28 118.71, 134.52 124.97, 110.81 120.16 C87.1 115.34, 37.68 83.03, 16.04 73.14 C-5.61 63.24, -13.21 62.85, -19.06 60.79" stroke="#1e1e1e" stroke-width="4" fill="none"></path></g></g><mask></mask></g><g clip-path="url(#sRnubfmopP1CStT848fMR)"><g stroke-linecap="round"><g transform="translate(180.57813701361306 110.05503124715233) rotate(0 19.195074736420565 20.970047725117865)"><path d="M0 0 C1.12 4.49, 0.34 19.96, 6.74 26.95 C13.14 33.94, 33.11 39.44, 38.39 41.94 M0 0 C1.12 4.49, 0.34 19.96, 6.74 26.95 C13.14 33.94, 33.11 39.44, 38.39 41.94" stroke="#1e1e1e" stroke-width="4" fill="none"></path></g></g><mask></mask></g><g clip-path="url(#sRnubfmopP1CStT848fMR)"><g stroke-linecap="round" transform="translate(237.24161806819143 40) rotate(0 50 100)"><path d="M25 0 C36.53 0, 48.05 0, 75 0 M25 0 C44.05 0, 63.09 0, 75 0 M75 0 C91.67 0, 100 8.33, 100 25 M75 0 C91.67 0, 100 8.33, 100 25 M100 25 C100 66.27, 100 107.55, 100 175 M100 25 C100 63.04, 100 101.08, 100 175 M100 175 C100 191.67, 91.67 200, 75 200 M100 175 C100 191.67, 91.67 200, 75 200 M75 200 C58.04 200, 41.08 200, 25 200 M75 200 C60.83 200, 46.66 200, 25 200 M25 200 C8.33 200, 0 191.67, 0 175 M25 200 C8.33 200, 0 191.67, 0 175 M0 175 C0 132.03, 0 89.06, 0 25 M0 175 C0 137.83, 0 100.67, 0 25 M0 25 C0 8.33, 8.33 0, 25 0 M0 25 C0 8.33, 8.33 0, 25 0" stroke="#1971c2" stroke-width="4" fill="none"></path></g></g><g clip-path="url(#sRnubfmopP1CStT848fMR)"><g stroke-linecap="round"><g transform="translate(380.0000000000002 20) rotate(0 0 260)"><path d="M0 0 C0 86.67, 0 433.33, 0 520 M0 0 C0 86.67, 0 433.33, 0 520" stroke="#1e1e1e" stroke-width="4" fill="none"></path></g></g><mask></mask></g><g clip-path="url(#sRnubfmopP1CStT848fMR)"><g stroke-linecap="round"><g transform="translate(566.7102896717236 128.7745373214235) rotate(0 40.517946905104736 7.765937247416616)"><path d="M0 0 C13.51 2.59, 67.53 12.94, 81.04 15.53 M0 0 C13.51 2.59, 67.53 12.94, 81.04 15.53" stroke="#2f9e44" stroke-width="4" fill="none"></path></g><g transform="translate(566.7102896717236 128.7745373214235) rotate(0 40.517946905104736 7.765937247416616)"><path d="M56.35 19.51 C63.43 18.37, 70.51 17.23, 81.04 15.53 M56.35 19.51 C62.3 18.55, 68.25 17.59, 81.04 15.53" stroke="#2f9e44" stroke-width="4" fill="none"></path></g><g transform="translate(566.7102896717236 128.7745373214235) rotate(0 40.517946905104736 7.765937247416616)"><path d="M59.57 2.71 C65.73 6.39, 71.88 10.06, 81.04 15.53 M59.57 2.71 C64.74 5.8, 69.92 8.89, 81.04 15.53" stroke="#2f9e44" stroke-width="4" fill="none"></path></g></g><mask></mask></g><g clip-path="url(#sRnubfmopP1CStT848fMR)"><g transform="translate(90.18495726019182 242.02162345242346) rotate(0 69.48730468749989 11.5)"><text x="0" y="0" font-family="Helvetica, Segoe UI Emoji" font-size="20px" fill="#e03131" text-anchor="start" style="white-space: pre;" direction="ltr" dominant-baseline="text-before-edge">Collision Shape</text></g></g><g clip-path="url(#sRnubfmopP1CStT848fMR)"><g stroke-linecap="round"><g transform="translate(160.5158257381638 232.5673997763687) rotate(0 12.090091255422521 -26.25386553297693)"><path d="M0 0 C4.03 -8.75, 20.15 -43.76, 24.18 -52.51 M0 0 C4.03 -8.75, 20.15 -43.76, 24.18 -52.51" stroke="#e03131" stroke-width="4" fill="none"></path></g><g transform="translate(160.5158257381638 232.5673997763687) rotate(0 12.090091255422521 -26.25386553297693)"><path d="M22.12 -27.59 C22.58 -33.16, 23.04 -38.73, 24.18 -52.51 M22.12 -27.59 C22.75 -35.26, 23.39 -42.93, 24.18 -52.51" stroke="#e03131" stroke-width="4" fill="none"></path></g><g transform="translate(160.5158257381638 232.5673997763687) rotate(0 12.090091255422521 -26.25386553297693)"><path d="M6.59 -34.75 C10.52 -38.72, 14.45 -42.68, 24.18 -52.51 M6.59 -34.75 C12 -40.21, 17.42 -45.68, 24.18 -52.51" stroke="#e03131" stroke-width="4" fill="none"></path></g></g><mask></mask></g><g clip-path="url(#sRnubfmopP1CStT848fMR)"><g transform="translate(610.8406162077702 170.77754620245457) rotate(0 33.359375 23)"><text x="33.359375" y="0" font-family="Helvetica, Segoe UI Emoji" font-size="20px" fill="#2f9e44" text-anchor="middle" style="white-space: pre;" direction="ltr" dominant-baseline="text-before-edge">Applied</text><text x="33.359375" y="23" font-family="Helvetica, Segoe UI Emoji" font-size="20px" fill="#2f9e44" text-anchor="middle" style="white-space: pre;" direction="ltr" dominant-baseline="text-before-edge">Force</text></g></g><g clip-path="url(#sRnubfmopP1CStT848fMR)"><g stroke-linecap="round"><g transform="translate(81.91948548647702 492.5575075628881) rotate(0 12.405191263636539 -33.427285588217615)"><path d="M0 0 C4.14 -11.14, 20.68 -55.71, 24.81 -66.85 M0 0 C4.14 -11.14, 20.68 -55.71, 24.81 -66.85" stroke="#1971c2" stroke-width="4" fill="none"></path></g><g transform="translate(81.91948548647702 492.5575075628881) rotate(0 12.405191263636539 -33.427285588217615)"><path d="M24.65 -41.86 C24.71 -51.55, 24.78 -61.25, 24.81 -66.85 M24.65 -41.86 C24.7 -49.85, 24.75 -57.84, 24.81 -66.85" stroke="#1971c2" stroke-width="4" fill="none"></path></g><g transform="translate(81.91948548647702 492.5575075628881) rotate(0 12.405191263636539 -33.427285588217615)"><path d="M8.62 -47.8 C14.9 -55.19, 21.18 -62.58, 24.81 -66.85 M8.62 -47.8 C13.8 -53.89, 18.97 -59.98, 24.81 -66.85" stroke="#1971c2" stroke-width="4" fill="none"></path></g></g><mask></mask></g><g clip-path="url(#sRnubfmopP1CStT848fMR)"><g stroke-linecap="round" transform="translate(535.1103265217291 100.39866130960684) rotate(0 30 30)"><path d="M60 30 C60 31.74, 59.85 33.5, 59.54 35.21 C59.24 36.92, 58.78 38.63, 58.19 40.26 C57.6 41.89, 56.85 43.5, 55.98 45 C55.11 46.5, 54.1 47.95, 52.98 49.28 C51.87 50.61, 50.61 51.87, 49.28 52.98 C47.95 54.1, 46.5 55.11, 45 55.98 C43.5 56.85, 41.89 57.6, 40.26 58.19 C38.63 58.78, 36.92 59.24, 35.21 59.54 C33.5 59.85, 31.74 60, 30 60 C28.26 60, 26.5 59.85, 24.79 59.54 C23.08 59.24, 21.37 58.78, 19.74 58.19 C18.11 57.6, 16.5 56.85, 15 55.98 C13.5 55.11, 12.05 54.1, 10.72 52.98 C9.39 51.87, 8.13 50.61, 7.02 49.28 C5.9 47.95, 4.89 46.5, 4.02 45 C3.15 43.5, 2.4 41.89, 1.81 40.26 C1.22 38.63, 0.76 36.92, 0.46 35.21 C0.15 33.5, 0 31.74, 0 30 C0 28.26, 0.15 26.5, 0.46 24.79 C0.76 23.08, 1.22 21.37, 1.81 19.74 C2.4 18.11, 3.15 16.5, 4.02 15 C4.89 13.5, 5.9 12.05, 7.02 10.72 C8.13 9.39, 9.39 8.13, 10.72 7.02 C12.05 5.9, 13.5 4.89, 15 4.02 C16.5 3.15, 18.11 2.4, 19.74 1.81 C21.37 1.22, 23.08 0.76, 24.79 0.46 C26.5 0.15, 28.26 0, 30 0 C31.74 0, 33.5 0.15, 35.21 0.46 C36.92 0.76, 38.63 1.22, 40.26 1.81 C41.89 2.4, 43.5 3.15, 45 4.02 C46.5 4.89, 47.95 5.9, 49.28 7.02 C50.61 8.13, 51.87 9.39, 52.98 10.72 C54.1 12.05, 55.11 13.5, 55.98 15 C56.85 16.5, 57.6 18.11, 58.19 19.74 C58.78 21.37, 59.24 23.08, 59.54 24.79 C59.85 26.5, 59.92 29.13, 60 30 C60.08 30.87, 60.08 29.13, 60 30" stroke="#e03131" stroke-width="4" fill="none"></path></g></g><g clip-path="url(#sRnubfmopP1CStT848fMR)"><g stroke-linecap="round"><g transform="translate(565.1103265217291 100.39866130960684) rotate(0 0 29.619595328923538)"><path d="M0 0 C0 9.87, 0 49.37, 0 59.24 M0 0 C0 9.87, 0 49.37, 0 59.24" stroke="#e03131" stroke-width="4" fill="none"></path></g></g><mask></mask></g><g clip-path="url(#sRnubfmopP1CStT848fMR)"><g stroke-linecap="round"><g transform="translate(535.1103265217291 130.39866130960684) rotate(0 30.486079187905034 0)"><path d="M0 0 C10.16 0, 50.81 0, 60.97 0 M0 0 C10.16 0, 50.81 0, 60.97 0" stroke="#e03131" stroke-width="4" fill="none"></path></g></g><mask></mask></g><g clip-path="url(#sRnubfmopP1CStT848fMR)"><g stroke-linecap="round"><g transform="translate(519.0630592923419 40) rotate(0 69.62940534417726 60.079197108685776)"><path d="M0 0 C7.51 3.33, 18.68 2.99, 45.07 19.99 C71.46 37, 147.37 85.33, 158.32 102.02 C169.28 118.71, 134.52 124.97, 110.81 120.16 C87.1 115.34, 37.68 83.03, 16.04 73.14 C-5.61 63.24, -13.21 62.85, -19.06 60.79 M0 0 C7.51 3.33, 18.68 2.99, 45.07 19.99 C71.46 37, 147.37 85.33, 158.32 102.02 C169.28 118.71, 134.52 124.97, 110.81 120.16 C87.1 115.34, 37.68 83.03, 16.04 73.14 C-5.61 63.24, -13.21 62.85, -19.06 60.79" stroke="#1e1e1e" stroke-width="4" fill="none"></path></g></g><mask></mask></g><g clip-path="url(#sRnubfmopP1CStT848fMR)"><g stroke-linecap="round"><g transform="translate(640.5781370136131 110.05503124715233) rotate(0 19.195074736420565 20.970047725117865)"><path d="M0 0 C1.12 4.49, 0.34 19.96, 6.74 26.95 C13.14 33.94, 33.11 39.44, 38.39 41.94 M0 0 C1.12 4.49, 0.34 19.96, 6.74 26.95 C13.14 33.94, 33.11 39.44, 38.39 41.94" stroke="#1e1e1e" stroke-width="4" fill="none"></path></g></g><mask></mask></g><g clip-path="url(#sRnubfmopP1CStT848fMR)"><g stroke-linecap="round" transform="translate(597.2416180681914 40) rotate(0 50 100)"><path d="M25 0 C36.95 0, 48.91 0, 75 0 M25 0 C39.83 0, 54.65 0, 75 0 M75 0 C91.67 0, 100 8.33, 100 25 M75 0 C91.67 0, 100 8.33, 100 25 M100 25 C100 84, 100 143.01, 100 175 M100 25 C100 58.48, 100 91.96, 100 175 M100 175 C100 191.67, 91.67 200, 75 200 M100 175 C100 191.67, 91.67 200, 75 200 M75 200 C64.17 200, 53.33 200, 25 200 M75 200 C63.05 200, 51.09 200, 25 200 M25 200 C8.33 200, 0 191.67, 0 175 M25 200 C8.33 200, 0 191.67, 0 175 M0 175 C0 129.16, 0 83.32, 0 25 M0 175 C0 127.45, 0 79.89, 0 25 M0 25 C0 8.33, 8.33 0, 25 0 M0 25 C0 8.33, 8.33 0, 25 0" stroke="#1971c2" stroke-width="4" fill="none"></path></g></g><g clip-path="url(#sRnubfmopP1CStT848fMR)"><g stroke-linecap="round" transform="translate(161.31640814311345 391.0898010976757) rotate(0 30 30)"><path d="M60 30 C60 31.74, 59.85 33.5, 59.54 35.21 C59.24 36.92, 58.78 38.63, 58.19 40.26 C57.6 41.89, 56.85 43.5, 55.98 45 C55.11 46.5, 54.1 47.95, 52.98 49.28 C51.87 50.61, 50.61 51.87, 49.28 52.98 C47.95 54.1, 46.5 55.11, 45 55.98 C43.5 56.85, 41.89 57.6, 40.26 58.19 C38.63 58.78, 36.92 59.24, 35.21 59.54 C33.5 59.85, 31.74 60, 30 60 C28.26 60, 26.5 59.85, 24.79 59.54 C23.08 59.24, 21.37 58.78, 19.74 58.19 C18.11 57.6, 16.5 56.85, 15 55.98 C13.5 55.11, 12.05 54.1, 10.72 52.98 C9.39 51.87, 8.13 50.61, 7.02 49.28 C5.9 47.95, 4.89 46.5, 4.02 45 C3.15 43.5, 2.4 41.89, 1.81 40.26 C1.22 38.63, 0.76 36.92, 0.46 35.21 C0.15 33.5, 0 31.74, 0 30 C0 28.26, 0.15 26.5, 0.46 24.79 C0.76 23.08, 1.22 21.37, 1.81 19.74 C2.4 18.11, 3.15 16.5, 4.02 15 C4.89 13.5, 5.9 12.05, 7.02 10.72 C8.13 9.39, 9.39 8.13, 10.72 7.02 C12.05 5.9, 13.5 4.89, 15 4.02 C16.5 3.15, 18.11 2.4, 19.74 1.81 C21.37 1.22, 23.08 0.76, 24.79 0.46 C26.5 0.15, 28.26 0, 30 0 C31.74 0, 33.5 0.15, 35.21 0.46 C36.92 0.76, 38.63 1.22, 40.26 1.81 C41.89 2.4, 43.5 3.15, 45 4.02 C46.5 4.89, 47.95 5.9, 49.28 7.02 C50.61 8.13, 51.87 9.39, 52.98 10.72 C54.1 12.05, 55.11 13.5, 55.98 15 C56.85 16.5, 57.6 18.11, 58.19 19.74 C58.78 21.37, 59.24 23.08, 59.54 24.79 C59.85 26.5, 59.92 29.13, 60 30 C60.08 30.87, 60.08 29.13, 60 30" stroke="#e03131" stroke-width="4" fill="none"></path></g></g><g clip-path="url(#sRnubfmopP1CStT848fMR)"><g stroke-linecap="round"><g transform="translate(191.31640814311345 391.0898010976757) rotate(0 0 29.61959532892351)"><path d="M0 0 C0 9.87, 0 49.37, 0 59.24 M0 0 C0 9.87, 0 49.37, 0 59.24" stroke="#e03131" stroke-width="4" fill="none"></path></g></g><mask></mask></g><g clip-path="url(#sRnubfmopP1CStT848fMR)"><g stroke-linecap="round"><g transform="translate(161.31640814311345 421.0898010976757) rotate(0 30.486079187905034 0)"><path d="M0 0 C10.16 0, 50.81 0, 60.97 0 M0 0 C10.16 0, 50.81 0, 60.97 0" stroke="#e03131" stroke-width="4" fill="none"></path></g></g><mask></mask></g><g clip-path="url(#sRnubfmopP1CStT848fMR)"><g stroke-linecap="round"><g transform="translate(59.06305929234168 320) rotate(0 69.62940534417714 60.079197108685804)"><path d="M0 0 C7.51 3.33, 18.68 2.99, 45.07 19.99 C71.46 37, 147.37 85.33, 158.32 102.02 C169.28 118.71, 134.52 124.97, 110.81 120.16 C87.1 115.34, 37.68 83.03, 16.04 73.14 C-5.61 63.24, -13.21 62.85, -19.06 60.79 M0 0 C7.51 3.33, 18.68 2.99, 45.07 19.99 C71.46 37, 147.37 85.33, 158.32 102.02 C169.28 118.71, 134.52 124.97, 110.81 120.16 C87.1 115.34, 37.68 83.03, 16.04 73.14 C-5.61 63.24, -13.21 62.85, -19.06 60.79" stroke="#1e1e1e" stroke-width="4" fill="none"></path></g></g><mask></mask></g><g clip-path="url(#sRnubfmopP1CStT848fMR)"><g stroke-linecap="round"><g transform="translate(180.57813701361306 390.05503124715233) rotate(0 19.195074736420565 20.970047725117837)"><path d="M0 0 C1.12 4.49, 0.34 19.96, 6.74 26.95 C13.14 33.94, 33.11 39.44, 38.39 41.94 M0 0 C1.12 4.49, 0.34 19.96, 6.74 26.95 C13.14 33.94, 33.11 39.44, 38.39 41.94" stroke="#1e1e1e" stroke-width="4" fill="none"></path></g></g><mask></mask></g><g clip-path="url(#sRnubfmopP1CStT848fMR)"><g stroke-linecap="round" transform="translate(237.24161806819143 320) rotate(0 50 100)"><path d="M25 0 C42.71 0, 60.42 0, 75 0 M25 0 C43.09 0, 61.19 0, 75 0 M75 0 C91.67 0, 100 8.33, 100 25 M75 0 C91.67 0, 100 8.33, 100 25 M100 25 C100 79.16, 100 133.31, 100 175 M100 25 C100 67.81, 100 110.63, 100 175 M100 175 C100 191.67, 91.67 200, 75 200 M100 175 C100 191.67, 91.67 200, 75 200 M75 200 C63.67 200, 52.33 200, 25 200 M75 200 C55.53 200, 36.06 200, 25 200 M25 200 C8.33 200, 0 191.67, 0 175 M25 200 C8.33 200, 0 191.67, 0 175 M0 175 C0 123.74, 0 72.47, 0 25 M0 175 C0 136.47, 0 97.95, 0 25 M0 25 C0 8.33, 8.33 0, 25 0 M0 25 C0 8.33, 8.33 0, 25 0" stroke="#1971c2" stroke-width="4" fill="none"></path></g></g><g clip-path="url(#sRnubfmopP1CStT848fMR)"><g stroke-linecap="round"><g transform="translate(720.0000000000002 280) rotate(0 -350 0)"><path d="M0 0 C-116.67 0, -583.33 0, -700 0 M0 0 C-116.67 0, -583.33 0, -700 0" stroke="#1e1e1e" stroke-width="4" fill="none"></path></g></g><mask></mask></g><g clip-path="url(#sRnubfmopP1CStT848fMR)"><g stroke-linecap="round"><g transform="translate(566.7102896717245 408.7745373214235) rotate(0 40.517946905104736 7.765937247416616)"><path d="M0 0 C13.51 2.59, 67.53 12.94, 81.04 15.53 M0 0 C13.51 2.59, 67.53 12.94, 81.04 15.53" stroke="#2f9e44" stroke-width="4" fill="none"></path></g><g transform="translate(566.7102896717245 408.7745373214235) rotate(0 40.517946905104736 7.765937247416616)"><path d="M56.35 19.51 C64.2 18.24, 72.04 16.98, 81.04 15.53 M56.35 19.51 C63.53 18.35, 70.71 17.2, 81.04 15.53" stroke="#2f9e44" stroke-width="4" fill="none"></path></g><g transform="translate(566.7102896717245 408.7745373214235) rotate(0 40.517946905104736 7.765937247416616)"><path d="M59.57 2.71 C66.39 6.79, 73.21 10.86, 81.04 15.53 M59.57 2.71 C65.81 6.44, 72.06 10.17, 81.04 15.53" stroke="#2f9e44" stroke-width="4" fill="none"></path></g></g><mask></mask></g><g clip-path="url(#sRnubfmopP1CStT848fMR)"><g stroke-linecap="round" transform="translate(535.1103265217291 380.39866130960684) rotate(0 30 30)"><path d="M60 30 C60 31.74, 59.85 33.5, 59.54 35.21 C59.24 36.92, 58.78 38.63, 58.19 40.26 C57.6 41.89, 56.85 43.5, 55.98 45 C55.11 46.5, 54.1 47.95, 52.98 49.28 C51.87 50.61, 50.61 51.87, 49.28 52.98 C47.95 54.1, 46.5 55.11, 45 55.98 C43.5 56.85, 41.89 57.6, 40.26 58.19 C38.63 58.78, 36.92 59.24, 35.21 59.54 C33.5 59.85, 31.74 60, 30 60 C28.26 60, 26.5 59.85, 24.79 59.54 C23.08 59.24, 21.37 58.78, 19.74 58.19 C18.11 57.6, 16.5 56.85, 15 55.98 C13.5 55.11, 12.05 54.1, 10.72 52.98 C9.39 51.87, 8.13 50.61, 7.02 49.28 C5.9 47.95, 4.89 46.5, 4.02 45 C3.15 43.5, 2.4 41.89, 1.81 40.26 C1.22 38.63, 0.76 36.92, 0.46 35.21 C0.15 33.5, 0 31.74, 0 30 C0 28.26, 0.15 26.5, 0.46 24.79 C0.76 23.08, 1.22 21.37, 1.81 19.74 C2.4 18.11, 3.15 16.5, 4.02 15 C4.89 13.5, 5.9 12.05, 7.02 10.72 C8.13 9.39, 9.39 8.13, 10.72 7.02 C12.05 5.9, 13.5 4.89, 15 4.02 C16.5 3.15, 18.11 2.4, 19.74 1.81 C21.37 1.22, 23.08 0.76, 24.79 0.46 C26.5 0.15, 28.26 0, 30 0 C31.74 0, 33.5 0.15, 35.21 0.46 C36.92 0.76, 38.63 1.22, 40.26 1.81 C41.89 2.4, 43.5 3.15, 45 4.02 C46.5 4.89, 47.95 5.9, 49.28 7.02 C50.61 8.13, 51.87 9.39, 52.98 10.72 C54.1 12.05, 55.11 13.5, 55.98 15 C56.85 16.5, 57.6 18.11, 58.19 19.74 C58.78 21.37, 59.24 23.08, 59.54 24.79 C59.85 26.5, 59.92 29.13, 60 30 C60.08 30.87, 60.08 29.13, 60 30" stroke="#e03131" stroke-width="4" fill="none"></path></g></g><g clip-path="url(#sRnubfmopP1CStT848fMR)"><g stroke-linecap="round"><g transform="translate(565.1103265217291 380.39866130960684) rotate(0 0 29.61959532892351)"><path d="M0 0 C0 9.87, 0 49.37, 0 59.24 M0 0 C0 9.87, 0 49.37, 0 59.24" stroke="#e03131" stroke-width="4" fill="none"></path></g></g><mask></mask></g><g clip-path="url(#sRnubfmopP1CStT848fMR)"><g stroke-linecap="round"><g transform="translate(535.1103265217291 410.39866130960684) rotate(0 30.486079187905034 0)"><path d="M0 0 C10.16 0, 50.81 0, 60.97 0 M0 0 C10.16 0, 50.81 0, 60.97 0" stroke="#e03131" stroke-width="4" fill="none"></path></g></g><mask></mask></g><g clip-path="url(#sRnubfmopP1CStT848fMR)"><g stroke-linecap="round"><g transform="translate(519.0630592923419 320) rotate(0 69.62940534417726 60.079197108685804)"><path d="M0 0 C7.51 3.33, 18.68 2.99, 45.07 19.99 C71.46 37, 147.37 85.33, 158.32 102.02 C169.28 118.71, 134.52 124.97, 110.81 120.16 C87.1 115.34, 37.68 83.03, 16.04 73.14 C-5.61 63.24, -13.21 62.85, -19.06 60.79 M0 0 C7.51 3.33, 18.68 2.99, 45.07 19.99 C71.46 37, 147.37 85.33, 158.32 102.02 C169.28 118.71, 134.52 124.97, 110.81 120.16 C87.1 115.34, 37.68 83.03, 16.04 73.14 C-5.61 63.24, -13.21 62.85, -19.06 60.79" stroke="#1e1e1e" stroke-width="4" fill="none"></path></g></g><mask></mask></g><g clip-path="url(#sRnubfmopP1CStT848fMR)"><g stroke-linecap="round"><g transform="translate(640.5781370136131 390.05503124715233) rotate(0 19.195074736420565 20.970047725117837)"><path d="M0 0 C1.12 4.49, 0.34 19.96, 6.74 26.95 C13.14 33.94, 33.11 39.44, 38.39 41.94 M0 0 C1.12 4.49, 0.34 19.96, 6.74 26.95 C13.14 33.94, 33.11 39.44, 38.39 41.94" stroke="#1e1e1e" stroke-width="4" fill="none"></path></g></g><mask></mask></g><g clip-path="url(#sRnubfmopP1CStT848fMR)"><g stroke-linecap="round" transform="translate(597.2416180681914 320) rotate(0 50 100)"><path d="M25 0 C36.17 0, 47.34 0, 75 0 M25 0 C35.35 0, 45.69 0, 75 0 M75 0 C91.67 0, 100 8.33, 100 25 M75 0 C91.67 0, 100 8.33, 100 25 M100 25 C100 81.67, 100 138.33, 100 175 M100 25 C100 76.48, 100 127.96, 100 175 M100 175 C100 191.67, 91.67 200, 75 200 M100 175 C100 191.67, 91.67 200, 75 200 M75 200 C60.26 200, 45.52 200, 25 200 M75 200 C58.07 200, 41.15 200, 25 200 M25 200 C8.33 200, 0 191.67, 0 175 M25 200 C8.33 200, 0 191.67, 0 175 M0 175 C0 123.87, 0 72.75, 0 25 M0 175 C0 116.88, 0 58.75, 0 25 M0 25 C0 8.33, 8.33 0, 25 0 M0 25 C0 8.33, 8.33 0, 25 0" stroke="#1971c2" stroke-width="4" fill="none"></path></g></g><g clip-path="url(#sRnubfmopP1CStT848fMR)"><g stroke-linecap="round" transform="translate(407.43768469610063 343.3443965660933) rotate(31.41480156126781 100 30)"><path d="M200 30 C200 31.12, 199.79 32.25, 199.37 33.36 C198.95 34.47, 198.32 35.58, 197.49 36.68 C196.66 37.77, 195.62 38.85, 194.39 39.91 C193.16 40.97, 191.72 42.01, 190.1 43.02 C188.48 44.03, 186.66 45.01, 184.67 45.96 C182.69 46.91, 180.51 47.83, 178.18 48.7 C175.86 49.58, 173.35 50.42, 170.71 51.21 C168.07 52, 165.27 52.76, 162.35 53.45 C159.43 54.15, 156.36 54.81, 153.2 55.4 C150.04 56, 146.75 56.54, 143.39 57.03 C140.03 57.51, 136.55 57.95, 133.03 58.32 C129.51 58.69, 125.89 59, 122.25 59.25 C118.61 59.5, 114.91 59.69, 111.2 59.81 C107.49 59.94, 103.73 60, 100 60 C96.27 60, 92.51 59.94, 88.8 59.81 C85.09 59.69, 81.39 59.5, 77.75 59.25 C74.11 59, 70.49 58.69, 66.97 58.32 C63.45 57.95, 59.97 57.51, 56.61 57.03 C53.25 56.54, 49.96 56, 46.8 55.4 C43.64 54.81, 40.57 54.15, 37.65 53.45 C34.73 52.76, 31.93 52, 29.29 51.21 C26.65 50.42, 24.14 49.58, 21.82 48.7 C19.49 47.83, 17.31 46.91, 15.33 45.96 C13.34 45.01, 11.52 44.03, 9.9 43.02 C8.28 42.01, 6.84 40.97, 5.61 39.91 C4.38 38.85, 3.34 37.77, 2.51 36.68 C1.68 35.58, 1.05 34.47, 0.63 33.36 C0.21 32.25, 0 31.12, 0 30 C0 28.88, 0.21 27.75, 0.63 26.64 C1.05 25.53, 1.68 24.42, 2.51 23.32 C3.34 22.23, 4.38 21.15, 5.61 20.09 C6.84 19.03, 8.28 17.99, 9.9 16.98 C11.52 15.97, 13.34 14.99, 15.33 14.04 C17.31 13.09, 19.49 12.17, 21.82 11.3 C24.14 10.42, 26.65 9.58, 29.29 8.79 C31.93 8, 34.73 7.24, 37.65 6.55 C40.57 5.85, 43.64 5.19, 46.8 4.6 C49.96 4, 53.25 3.46, 56.61 2.97 C59.97 2.49, 63.45 2.05, 66.97 1.68 C70.49 1.31, 74.11 1, 77.75 0.75 C81.39 0.5, 85.09 0.31, 88.8 0.19 C92.51 0.06, 96.27 0, 100 0 C103.73 0, 107.49 0.06, 111.2 0.19 C114.91 0.31, 118.61 0.5, 122.25 0.75 C125.89 1, 129.51 1.31, 133.03 1.68 C136.55 2.05, 140.03 2.49, 143.39 2.97 C146.75 3.46, 150.04 4, 153.2 4.6 C156.36 5.19, 159.43 5.85, 162.35 6.55 C165.27 7.24, 168.07 8, 170.71 8.79 C173.35 9.58, 175.86 10.42, 178.18 11.3 C180.51 12.17, 182.69 13.09, 184.67 14.04 C186.66 14.99, 188.48 15.97, 190.1 16.98 C191.72 17.99, 193.16 19.03, 194.39 20.09 C195.62 21.15, 196.66 22.23, 197.49 23.32 C198.32 24.42, 198.95 25.53, 199.37 26.64 C199.79 27.75, 199.9 29.44, 200 30 C200.1 30.56, 200.1 29.44, 200 30" stroke="#1971c2" stroke-width="4" fill="none"></path></g></g><g clip-path="url(#sRnubfmopP1CStT848fMR)"><g stroke-linecap="round" transform="translate(30.814180271525856 355.49974972488434) rotate(31.41480156126781 99.99999999999989 30)"><path d="M200 30 C200 31.12, 199.79 32.25, 199.37 33.36 C198.95 34.47, 198.32 35.58, 197.49 36.68 C196.66 37.77, 195.62 38.85, 194.39 39.91 C193.16 40.97, 191.72 42.01, 190.1 43.02 C188.48 44.03, 186.66 45.01, 184.67 45.96 C182.69 46.91, 180.51 47.83, 178.18 48.7 C175.86 49.58, 173.35 50.42, 170.71 51.21 C168.07 52, 165.27 52.76, 162.35 53.45 C159.43 54.15, 156.36 54.81, 153.2 55.4 C150.04 56, 146.75 56.54, 143.39 57.03 C140.03 57.51, 136.55 57.95, 133.03 58.32 C129.51 58.69, 125.89 59, 122.25 59.25 C118.61 59.5, 114.91 59.69, 111.2 59.81 C107.49 59.94, 103.73 60, 100 60 C96.27 60, 92.51 59.94, 88.8 59.81 C85.09 59.69, 81.39 59.5, 77.75 59.25 C74.11 59, 70.49 58.69, 66.97 58.32 C63.45 57.95, 59.97 57.51, 56.61 57.03 C53.25 56.54, 49.96 56, 46.8 55.4 C43.64 54.81, 40.57 54.15, 37.65 53.45 C34.73 52.76, 31.93 52, 29.29 51.21 C26.65 50.42, 24.14 49.58, 21.82 48.7 C19.49 47.83, 17.31 46.91, 15.33 45.96 C13.34 45.01, 11.52 44.03, 9.9 43.02 C8.28 42.01, 6.84 40.97, 5.61 39.91 C4.38 38.85, 3.34 37.77, 2.51 36.68 C1.68 35.58, 1.05 34.47, 0.63 33.36 C0.21 32.25, 0 31.12, 0 30 C0 28.88, 0.21 27.75, 0.63 26.64 C1.05 25.53, 1.68 24.42, 2.51 23.32 C3.34 22.23, 4.38 21.15, 5.61 20.09 C6.84 19.03, 8.28 17.99, 9.9 16.98 C11.52 15.97, 13.34 14.99, 15.33 14.04 C17.31 13.09, 19.49 12.17, 21.82 11.3 C24.14 10.42, 26.65 9.58, 29.29 8.79 C31.93 8, 34.73 7.24, 37.65 6.55 C40.57 5.85, 43.64 5.19, 46.8 4.6 C49.96 4, 53.25 3.46, 56.61 2.97 C59.97 2.49, 63.45 2.05, 66.97 1.68 C70.49 1.31, 74.11 1, 77.75 0.75 C81.39 0.5, 85.09 0.31, 88.8 0.19 C92.51 0.06, 96.27 0, 100 0 C103.73 0, 107.49 0.06, 111.2 0.19 C114.91 0.31, 118.61 0.5, 122.25 0.75 C125.89 1, 129.51 1.31, 133.03 1.68 C136.55 2.05, 140.03 2.49, 143.39 2.97 C146.75 3.46, 150.04 4, 153.2 4.6 C156.36 5.19, 159.43 5.85, 162.35 6.55 C165.27 7.24, 168.07 8, 170.71 8.79 C173.35 9.58, 175.86 10.42, 178.18 11.3 C180.51 12.17, 182.69 13.09, 184.67 14.04 C186.66 14.99, 188.48 15.97, 190.1 16.98 C191.72 17.99, 193.16 19.03, 194.39 20.09 C195.62 21.15, 196.66 22.23, 197.49 23.32 C198.32 24.42, 198.95 25.53, 199.37 26.64 C199.79 27.75, 199.9 29.44, 200 30 C200.1 30.56, 200.1 29.44, 200 30" stroke="#1971c2" stroke-width="4" fill="none"></path></g></g><g clip-path="url(#sRnubfmopP1CStT848fMR)"><g transform="translate(25.833156043287545 502.8160095893215) rotate(0 59.287109374999886 11.5)"><text x="59.287109375" y="0" font-family="Helvetica, Segoe UI Emoji" font-size="20px" fill="#1971c2" text-anchor="middle" style="white-space: pre;" direction="ltr" dominant-baseline="text-before-edge">Virtual Finger</text></g></g><g clip-path="url(#sRnubfmopP1CStT848fMR)"><g transform="translate(256.8447306792225 120.44782132444595) rotate(0 28.1640625 23)"><text x="28.1640625" y="0" font-family="Helvetica, Segoe UI Emoji" font-size="20px" fill="#1971c2" text-anchor="middle" style="white-space: pre;" direction="ltr" dominant-baseline="text-before-edge">Virtual</text><text x="28.1640625" y="23" font-family="Helvetica, Segoe UI Emoji" font-size="20px" fill="#1971c2" text-anchor="middle" style="white-space: pre;" direction="ltr" dominant-baseline="text-before-edge">Wall</text></g></g></svg>