<svg version="1.1" xmlns="http://www.w3.org/2000/svg" viewBox="0 0 340 360" width="340" height="360">
  <!-- svg-source:excalidraw -->
  
  <defs>
    <style class="style-fonts">
      @font-face {
        font-family: "Virgil";
        src: url("https://excalidraw.com/Virgil.woff2");
      }
      @font-face {
        font-family: "Cascadia";
        src: url("https://excalidraw.com/Cascadia.woff2");
      }
      @font-face {
        font-family: "Assistant";
        src: url("https://excalidraw.com/Assistant-Regular.woff2");
      }
    </style>
    <clipPath id="oLybOgzkcPcTglTBrSBCw">
            <rect transform="translate(0 0) rotate(0 170 180)" width="340" height="360">
          </rect>
        </clipPath>
  </defs>
  <rect x="0" y="0" width="340" height="360" fill="#ffffff"></rect><g clip-path="url(#oLybOgzkcPcTglTBrSBCw)"><g mask="url(#mask-eaVTJVbLbVX0NlY6i4iVS)" stroke-linecap="round"><g transform="translate(40 20) rotate(0 0 160)"><path d="M0 0 C0 53.33, 0 266.67, 0 320 M0 0 C0 53.33, 0 266.67, 0 320" stroke="#1e1e1e" stroke-width="4" fill="none"></path></g><g transform="translate(40 20) rotate(0 0 160)"><path d="M-8.55 296.51 C-6.18 303.03, -3.8 309.56, 0 320 M-8.55 296.51 C-5.61 304.59, -2.67 312.67, 0 320" stroke="#1e1e1e" stroke-width="4" fill="none"></path></g><g transform="translate(40 20) rotate(0 0 160)"><path d="M8.55 296.51 C6.18 303.03, 3.8 309.56, 0 320 M8.55 296.51 C5.61 304.59, 2.67 312.67, 0 320" stroke="#1e1e1e" stroke-width="4" fill="none"></path></g></g><mask id="mask-eaVTJVbLbVX0NlY6i4iVS"><rect x="0" y="0" fill="#fff" width="140" height="440"></rect><rect x="18.1494140625" y="168.5" fill="#000" width="43.701171875" height="23" opacity="1"></rect></mask></g><g clip-path="url(#oLybOgzkcPcTglTBrSBCw)"><g transform="translate(18.1494140625 168.5) rotate(0 21.8505859375 11.5)"><text x="21.8505859375" y="0" font-family="Helvetica, Segoe UI Emoji" font-size="20px" fill="#1e1e1e" text-anchor="middle" style="white-space: pre;" direction="ltr" dominant-baseline="text-before-edge">Time</text></g></g><g clip-path="url(#oLybOgzkcPcTglTBrSBCw)"><g stroke-linecap="round" transform="translate(80 40) rotate(0 110 21.099999999999994)"><path d="M10.55 0 C71.05 0, 131.55 0, 209.45 0 M10.55 0 C70.66 0, 130.77 0, 209.45 0 M209.45 0 C216.48 0, 220 3.52, 220 10.55 M209.45 0 C216.48 0, 220 3.52, 220 10.55 M220 10.55 C220 15.58, 220 20.62, 220 31.65 M220 10.55 C220 18.14, 220 25.74, 220 31.65 M220 31.65 C220 38.68, 216.48 42.2, 209.45 42.2 M220 31.65 C220 38.68, 216.48 42.2, 209.45 42.2 M209.45 42.2 C161.14 42.2, 112.84 42.2, 10.55 42.2 M209.45 42.2 C157.82 42.2, 106.19 42.2, 10.55 42.2 M10.55 42.2 C3.52 42.2, 0 38.68, 0 31.65 M10.55 42.2 C3.52 42.2, 0 38.68, 0 31.65 M0 31.65 C0 26.35, 0 21.05, 0 10.55 M0 31.65 C0 23.99, 0 16.32, 0 10.55 M0 10.55 C0 3.52, 3.52 0, 10.55 0 M0 10.55 C0 3.52, 3.52 0, 10.55 0" stroke="#1e1e1e" stroke-width="4" fill="none"></path></g></g><g clip-path="url(#oLybOgzkcPcTglTBrSBCw)"><g transform="translate(92.697265625 45) rotate(0 97.302734375 16.099999999999994)"><text x="97.302734375" y="0" font-family="Helvetica, Segoe UI Emoji" font-size="28px" fill="#1e1e1e" text-anchor="middle" style="white-space: pre;" direction="ltr" dominant-baseline="text-before-edge">on_touch_enter</text></g></g><g clip-path="url(#oLybOgzkcPcTglTBrSBCw)"><g stroke-linecap="round" transform="translate(80 280) rotate(0 110 21.099999999999994)"><path d="M10.55 0 C59.15 0, 107.75 0, 209.45 0 M10.55 0 C62.09 0, 113.63 0, 209.45 0 M209.45 0 C216.48 0, 220 3.52, 220 10.55 M209.45 0 C216.48 0, 220 3.52, 220 10.55 M220 10.55 C220 17.71, 220 24.87, 220 31.65 M220 10.55 C220 16.61, 220 22.68, 220 31.65 M220 31.65 C220 38.68, 216.48 42.2, 209.45 42.2 M220 31.65 C220 38.68, 216.48 42.2, 209.45 42.2 M209.45 42.2 C131.88 42.2, 54.31 42.2, 10.55 42.2 M209.45 42.2 C164.22 42.2, 118.98 42.2, 10.55 42.2 M10.55 42.2 C3.52 42.2, 0 38.68, 0 31.65 M10.55 42.2 C3.52 42.2, 0 38.68, 0 31.65 M0 31.65 C0 25.87, 0 20.09, 0 10.55 M0 31.65 C0 25.23, 0 18.81, 0 10.55 M0 10.55 C0 3.52, 3.52 0, 10.55 0 M0 10.55 C0 3.52, 3.52 0, 10.55 0" stroke="#1e1e1e" stroke-width="4" fill="none"></path></g></g><g clip-path="url(#oLybOgzkcPcTglTBrSBCw)"><g transform="translate(91.138671875 285) rotate(0 98.861328125 16.099999999999994)"><text x="98.861328125" y="0" font-family="Helvetica, Segoe UI Emoji" font-size="28px" fill="#1e1e1e" text-anchor="middle" style="white-space: pre;" direction="ltr" dominant-baseline="text-before-edge">on_touch_leave</text></g></g><g clip-path="url(#oLybOgzkcPcTglTBrSBCw)"><g stroke-linecap="round" transform="translate(80 100) rotate(0 110 21.099999999999994)"><path d="M10.55 0 C50.91 0, 91.27 0, 209.45 0 M10.55 0 C57.86 0, 105.16 0, 209.45 0 M209.45 0 C216.48 0, 220 3.52, 220 10.55 M209.45 0 C216.48 0, 220 3.52, 220 10.55 M220 10.55 C220 18.44, 220 26.32, 220 31.65 M220 10.55 C220 15.73, 220 20.91, 220 31.65 M220 31.65 C220 38.68, 216.48 42.2, 209.45 42.2 M220 31.65 C220 38.68, 216.48 42.2, 209.45 42.2 M209.45 42.2 C137.53 42.2, 65.61 42.2, 10.55 42.2 M209.45 42.2 C164.78 42.2, 120.11 42.2, 10.55 42.2 M10.55 42.2 C3.52 42.2, 0 38.68, 0 31.65 M10.55 42.2 C3.52 42.2, 0 38.68, 0 31.65 M0 31.65 C0 23.45, 0 15.26, 0 10.55 M0 31.65 C0 25.31, 0 18.97, 0 10.55 M0 10.55 C0 3.52, 3.52 0, 10.55 0 M0 10.55 C0 3.52, 3.52 0, 10.55 0" stroke="#1e1e1e" stroke-width="4" fill="none"></path></g></g><g clip-path="url(#oLybOgzkcPcTglTBrSBCw)"><g transform="translate(90.373046875 105) rotate(0 99.626953125 16.099999999999994)"><text x="99.626953125" y="0" font-family="Helvetica, Segoe UI Emoji" font-size="28px" fill="#1e1e1e" text-anchor="middle" style="white-space: pre;" direction="ltr" dominant-baseline="text-before-edge">on_touch_move</text></g></g><g clip-path="url(#oLybOgzkcPcTglTBrSBCw)"><g stroke-linecap="round" transform="translate(80 160) rotate(0 110 21.099999999999994)"><path d="M10.55 0 C76.4 0, 142.24 0, 209.45 0 M10.55 0 C51.22 0, 91.9 0, 209.45 0 M209.45 0 C216.48 0, 220 3.52, 220 10.55 M209.45 0 C216.48 0, 220 3.52, 220 10.55 M220 10.55 C220 16.08, 220 21.62, 220 31.65 M220 10.55 C220 15.43, 220 20.3, 220 31.65 M220 31.65 C220 38.68, 216.48 42.2, 209.45 42.2 M220 31.65 C220 38.68, 216.48 42.2, 209.45 42.2 M209.45 42.2 C140.8 42.2, 72.15 42.2, 10.55 42.2 M209.45 42.2 C148.83 42.2, 88.22 42.2, 10.55 42.2 M10.55 42.2 C3.52 42.2, 0 38.68, 0 31.65 M10.55 42.2 C3.52 42.2, 0 38.68, 0 31.65 M0 31.65 C0 24.78, 0 17.91, 0 10.55 M0 31.65 C0 27.03, 0 22.42, 0 10.55 M0 10.55 C0 3.52, 3.52 0, 10.55 0 M0 10.55 C0 3.52, 3.52 0, 10.55 0" stroke="#1e1e1e" stroke-width="4" fill="none"></path></g></g><g clip-path="url(#oLybOgzkcPcTglTBrSBCw)"><g transform="translate(90.373046875 165) rotate(0 99.626953125 16.099999999999994)"><text x="99.626953125" y="0" font-family="Helvetica, Segoe UI Emoji" font-size="28px" fill="#1e1e1e" text-anchor="middle" style="white-space: pre;" direction="ltr" dominant-baseline="text-before-edge">on_touch_move</text></g></g><g clip-path="url(#oLybOgzkcPcTglTBrSBCw)"><g stroke-linecap="round" transform="translate(80 220) rotate(0 110 21.099999999999994)"><path d="M10.55 0 C57.63 0, 104.71 0, 209.45 0 M10.55 0 C69.87 0, 129.2 0, 209.45 0 M209.45 0 C216.48 0, 220 3.52, 220 10.55 M209.45 0 C216.48 0, 220 3.52, 220 10.55 M220 10.55 C220 17.91, 220 25.27, 220 31.65 M220 10.55 C220 18.64, 220 26.73, 220 31.65 M220 31.65 C220 38.68, 216.48 42.2, 209.45 42.2 M220 31.65 C220 38.68, 216.48 42.2, 209.45 42.2 M209.45 42.2 C163.32 42.2, 117.2 42.2, 10.55 42.2 M209.45 42.2 C138.94 42.2, 68.43 42.2, 10.55 42.2 M10.55 42.2 C3.52 42.2, 0 38.68, 0 31.65 M10.55 42.2 C3.52 42.2, 0 38.68, 0 31.65 M0 31.65 C0 24.82, 0 18, 0 10.55 M0 31.65 C0 26.16, 0 20.67, 0 10.55 M0 10.55 C0 3.52, 3.52 0, 10.55 0 M0 10.55 C0 3.52, 3.52 0, 10.55 0" stroke="#1e1e1e" stroke-width="4" fill="none"></path></g></g><g clip-path="url(#oLybOgzkcPcTglTBrSBCw)"><g transform="translate(90.373046875 225) rotate(0 99.626953125 16.099999999999994)"><text x="99.626953125" y="0" font-family="Helvetica, Segoe UI Emoji" font-size="28px" fill="#1e1e1e" text-anchor="middle" style="white-space: pre;" direction="ltr" dominant-baseline="text-before-edge">on_touch_move</text></g></g></svg>